 <svg  version="1.0" xmlns="http://www.w3.org/2000/svg"  width="168.000000pt" height="159.000000pt" viewBox="0 0 168.000000 159.000000"  preserveAspectRatio="xMidYMid meet">  <g transform="translate(0.000000,159.000000) scale(0.100000,-0.100000)" fill="#e4e6db" stroke="none"> <path d="M830 1404 c-25 -7 -73 -14 -107 -14 -169 0 -351 -147 -404 -325 -12 -38 -28 -83 -37 -100 -46 -89 -54 -113 -59 -174 -10 -135 45 -291 134 -379 27 -26 61 -68 75 -93 89 -153 325 -238 509 -183 30 9 86 17 124 18 56 1 83 7 137 33 123 58 246 210 265 328 3 22 19 60 35 84 37 59 48 101 48 186 0 135 -46 251 -136 342 -28 28 -61 71 -73 95 -43 82 -156 161 -271 187 -63 15 -187 12 -240 -5z m213 -9 c103 -27 211 -97 249 -162 l17 -29 -65 4 c-57 4 -72 1 -130 -28 -44 -21 -75 -45 -94 -71 -32 -45 -53 -123 -44 -168 l6 -30 -68 6 c-38 3 -70 7 -71 8 -2 1 9 31 23 66 47 115 43 309 -7 309 -25 0 -30 -25 -14 -64 22 -52 19 -161 -6 -234 -11 -34 -25 -62 -30 -62 -17 0 -84 37 -100 56 -69 78 -73 207 -9 307 28 45 28 45 77 40 l48 -4 -24 19 -24 19 34 11 c82 26 152 28 232 7z m-347 -75 c-47 -56 -67 -164 -46 -241 13 -46 72 -115 121 -140 l40 -20 -33 -45 c-47 -66 -53 -69 -73 -37 -56 87 -194 183 -263 183 -29 0 -33 -3 -30 -22 2 -18 12 -24 44 -29 70 -12 109 -34 183 -104 39 -37 71 -71 71 -75 0 -5 -23 -20 -52 -34 -122 -61 -265 -9 -328 118 -11 23 -20 35 -20 27 0 -43 71 -125 140 -161 68 -36 167 -29 230 15 l35 25 21 -43 c41 -81 41 -84 -13 -92 -62 -8 -132 -29 -172 -50 -48 -24 -111 -85 -111 -106 0 -30 36 -23 62 11 34 47 107 88 193 110 43 11 80 18 83 15 10 -10 1 -128 -12 -153 -33 -64 -126 -122 -207 -130 -72 -7 -96 2 -109 43 -13 40 -26 45 -35 14 -7 -20 -9 -19 -45 16 -77 75 -120 186 -120 310 0 99 19 154 70 213 46 52 50 65 15 56 -24 -6 -25 -4 -19 27 28 159 215 328 362 329 l44 0 -26 -30z m603 -130 c10 -5 21 -23 24 -40 7 -35 20 -39 33 -9 9 19 11 19 47 -18 113 -113 157 -315 97 -450 -10 -24 -21 -43 -24 -43 -3 0 -12 15 -19 33 -21 49 -64 95 -121 127 -73 42 -158 42 -232 1 l-52 -30 -26 61 c-15 33 -25 62 -24 64 2 2 35 8 73 14 39 6 97 23 130 39 66 31 139 93 133 113 -9 27 -38 17 -84 -29 -51 -51 -123 -85 -216 -102 l-48 -8 0 56 c1 100 59 181 155 215 47 17 129 20 154 6z m-366 -294 c44 -6 57 -11 57 -24 0 -9 11 -41 25 -70 l24 -53 -50 -62 c-28 -34 -56 -60 -62 -59 -7 2 -41 9 -76 15 -56 10 -65 15 -71 37 -4 14 -17 45 -28 69 l-22 44 34 38 c19 20 42 49 51 63 13 20 21 23 38 17 12 -5 48 -11 80 -15z m380 -107 c54 -27 104 -74 128 -121 24 -47 24 -60 -1 -83 -27 -24 -26 -45 1 -38 20 6 21 3 15 -32 -29 -152 -198 -307 -352 -322 l-59 -6 21 24 c55 61 79 177 54 254 -15 46 -79 118 -120 135 -17 7 -30 18 -30 24 1 14 68 106 78 106 4 -1 20 -21 36 -46 51 -81 174 -163 244 -164 29 0 33 3 30 22 -2 18 -12 24 -44 30 -23 3 -64 18 -90 31 -56 28 -149 118 -149 144 0 9 19 26 44 40 58 30 136 31 194 2z m-390 -179 c5 -4 4 -17 -2 -29 -24 -45 -48 -140 -50 -203 -3 -72 18 -138 43 -138 25 0 28 19 11 71 -31 91 2 289 46 289 28 0 101 -62 122 -103 41 -79 31 -191 -24 -267 -22 -31 -35 -40 -49 -36 -11 4 -29 9 -40 12 -25 7 -28 -21 -4 -34 14 -8 11 -11 -17 -21 -160 -56 -382 16 -475 153 l-22 32 59 -4 c68 -5 125 12 188 58 57 42 85 100 85 178 l1 63 60 -6 c33 -4 64 -11 68 -15z"/> </g> </svg> 